# xmcd
# 
# Track frame offsets:
#     150
#     19032
#     39812
#     59855
#     86607
#     105930
#     120605
#     137327
#     157532
#     178865
#     217965
#     241585
#     259707
#     290337
# 
# Disc length: 4514
# 
# Revision: 0
# Processed by: cddbd v1.5.2PL0 Copyright (c) Steve Scherf et al.
# Submitted via: BonkEnc v1.0.8
# 
DISCID=aa11a00e
DTITLE=Albert King - The Tomato Years
DYEAR=1993
DGENRE=Blues
TTITLE0=Cold Women With Warm Hearts
TTITLE1=Truckload Of Lovin'
TTITLE2=Cadillac Assembly Line
TTITLE3=Angel Of Mercy
TTITLE4=The Very Thought Of You
TTITLE5=We All Wanna Boogie
TTITLE6=Get Out Of My Life Woman
TTITLE7=Call My Job
TTITLE8=Good Time Charly
TTITLE9=I'm Gonna Call You Soon As The Sun Goes Down
TTITLE10=That's What The Blues Is All About
TTITLE11=Love Shock
TTITLE12=I'll Play The Blues For You
TTITLE13=Blues At Sunrise
EXTD=
EXTT0=
EXTT1=
EXTT2=
EXTT3=
EXTT4=
EXTT5=
EXTT6=
EXTT7=
EXTT8=
EXTT9=
EXTT10=
EXTT11=
EXTT12=
EXTT13=
PLAYORDER=
